<svg width="420" height="292" viewBox="0 0 420 292" xmlns="http://www.w3.org/2000/svg" role="img" aria-label="CSES Category Progress">
  <title>CSES Category Progress</title>
  <defs><clipPath id="cr2"><rect width="420" height="292" rx="12"/></clipPath></defs>
  <rect width="420" height="292" rx="12" fill="#0d1117" clip-path="url(#cr2)"/>
  <rect width="3" height="292" fill="#c9373c"/>
  <text x="16" y="24" font-family="JetBrains Mono,monospace" font-size="11" fill="#c9373c" font-weight="700" letter-spacing="2">CATEGORY PROGRESS</text>
  <line x1="16" y1="33" x2="404" y2="33" stroke="#21262d" stroke-width="1"/>
  
  <text x="16" y="64" font-family="JetBrains Mono,monospace" font-size="11" fill="#c9d1d9">Introductory</text>
  <rect x="110" y="55" width="244" height="10" rx="5" fill="#21262d"/>
  <rect x="110" y="55" width="64" height="10" rx="5" fill="#c9373c" opacity="0.9">
    <animate attributeName="width" from="0" to="64" dur="1.00s" fill="freeze" calcMode="spline" keySplines="0.4 0 0.2 1" keyTimes="0;1"/>
  </rect>
  <text x="362" y="64" font-family="JetBrains Mono,monospace" font-size="10" fill="#8b949e">5/19</text>
  <text x="16" y="92" font-family="JetBrains Mono,monospace" font-size="11" fill="#c9d1d9">Sorting</text>
  <rect x="110" y="83" width="244" height="10" rx="5" fill="#21262d"/>
  <rect x="110" y="83" width="13" height="10" rx="5" fill="#c9373c" opacity="0.9">
    <animate attributeName="width" from="0" to="13" dur="1.08s" fill="freeze" calcMode="spline" keySplines="0.4 0 0.2 1" keyTimes="0;1"/>
  </rect>
  <text x="362" y="92" font-family="JetBrains Mono,monospace" font-size="10" fill="#8b949e">2/35</text>
  <text x="16" y="120" font-family="JetBrains Mono,monospace" font-size="11" fill="#c9d1d9">DP</text>
  <rect x="110" y="111" width="244" height="10" rx="5" fill="#21262d"/>
  <rect x="110" y="111" width="0" height="10" rx="5" fill="#c9373c" opacity="0.9">
    <animate attributeName="width" from="0" to="0" dur="1.16s" fill="freeze" calcMode="spline" keySplines="0.4 0 0.2 1" keyTimes="0;1"/>
  </rect>
  <text x="362" y="120" font-family="JetBrains Mono,monospace" font-size="10" fill="#8b949e">0/19</text>
  <text x="16" y="148" font-family="JetBrains Mono,monospace" font-size="11" fill="#c9d1d9">Graphs</text>
  <rect x="110" y="139" width="244" height="10" rx="5" fill="#21262d"/>
  <rect x="110" y="139" width="0" height="10" rx="5" fill="#c9373c" opacity="0.9">
    <animate attributeName="width" from="0" to="0" dur="1.24s" fill="freeze" calcMode="spline" keySplines="0.4 0 0.2 1" keyTimes="0;1"/>
  </rect>
  <text x="362" y="148" font-family="JetBrains Mono,monospace" font-size="10" fill="#8b949e">0/36</text>
  <text x="16" y="176" font-family="JetBrains Mono,monospace" font-size="11" fill="#c9d1d9">Range Queries</text>
  <rect x="110" y="167" width="244" height="10" rx="5" fill="#21262d"/>
  <rect x="110" y="167" width="0" height="10" rx="5" fill="#c9373c" opacity="0.9">
    <animate attributeName="width" from="0" to="0" dur="1.32s" fill="freeze" calcMode="spline" keySplines="0.4 0 0.2 1" keyTimes="0;1"/>
  </rect>
  <text x="362" y="176" font-family="JetBrains Mono,monospace" font-size="10" fill="#8b949e">0/19</text>
  <text x="16" y="204" font-family="JetBrains Mono,monospace" font-size="11" fill="#c9d1d9">Trees</text>
  <rect x="110" y="195" width="244" height="10" rx="5" fill="#21262d"/>
  <rect x="110" y="195" width="0" height="10" rx="5" fill="#c9373c" opacity="0.9">
    <animate attributeName="width" from="0" to="0" dur="1.40s" fill="freeze" calcMode="spline" keySplines="0.4 0 0.2 1" keyTimes="0;1"/>
  </rect>
  <text x="362" y="204" font-family="JetBrains Mono,monospace" font-size="10" fill="#8b949e">0/16</text>
  <text x="16" y="232" font-family="JetBrains Mono,monospace" font-size="11" fill="#c9d1d9">Math</text>
  <rect x="110" y="223" width="244" height="10" rx="5" fill="#21262d"/>
  <rect x="110" y="223" width="0" height="10" rx="5" fill="#c9373c" opacity="0.9">
    <animate attributeName="width" from="0" to="0" dur="1.48s" fill="freeze" calcMode="spline" keySplines="0.4 0 0.2 1" keyTimes="0;1"/>
  </rect>
  <text x="362" y="232" font-family="JetBrains Mono,monospace" font-size="10" fill="#8b949e">0/31</text>
  <text x="16" y="260" font-family="JetBrains Mono,monospace" font-size="11" fill="#c9d1d9">Strings</text>
  <rect x="110" y="251" width="244" height="10" rx="5" fill="#21262d"/>
  <rect x="110" y="251" width="0" height="10" rx="5" fill="#c9373c" opacity="0.9">
    <animate attributeName="width" from="0" to="0" dur="1.56s" fill="freeze" calcMode="spline" keySplines="0.4 0 0.2 1" keyTimes="0;1"/>
  </rect>
  <text x="362" y="260" font-family="JetBrains Mono,monospace" font-size="10" fill="#8b949e">0/17</text>
</svg>